<svg xmlns="http://www.w3.org/2000/svg" width="20" height="20" viewBox="0 0 19.59 15" style="margin-top:0.3rem;margin-left:0.3rem;margin-right:0.3rem">
                          <path id="Icon_awesome-sign-in-alt" data-name="Icon awesome-sign-in-alt" d="M15.917,19.192H12.7a.46.46,0,0,1-.459-.459V17.2a.46.46,0,0,1,.459-.459h3.214a1.223,1.223,0,0,0,1.224-1.224V8.173a1.223,1.223,0,0,0-1.224-1.224H12.7a.46.46,0,0,1-.459-.459V4.959A.46.46,0,0,1,12.7,4.5h3.214A3.674,3.674,0,0,1,19.59,8.173v7.346A3.674,3.674,0,0,1,15.917,19.192Zm-1.8-7.69L7.69,5.074a.92.92,0,0,0-1.569.65V9.4H.918A.916.916,0,0,0,0,10.316v3.673a.916.916,0,0,0,.918.918h5.2V18.58a.92.92,0,0,0,1.569.65L14.118,12.8A.926.926,0,0,0,14.118,11.5Z" transform="translate(0 -4.5)" fill="#d3274c"></path>
                        </svg>