<svg xmlns="http://www.w3.org/2000/svg" width="25" height="25" viewBox="0 0 25 25">
  <circle id="Ellipse_136" data-name="Ellipse 136" cx="12.5" cy="12.5" r="12.5" fill="#F3BA2F"/>
  <path id="Exclusion_119" data-name="Exclusion 119" d="M9.075,18.257a8.943,8.943,0,0,1-1.36-.113c-.387-.06-.791-.144-1.2-.249a12.333,12.333,0,0,1-1.182-.362,7.353,7.353,0,0,1-.844-.426,10.252,10.252,0,0,1-.863-.558,10.014,10.014,0,0,1-.987-.81A8.48,8.48,0,0,1,.8,13.3a7.683,7.683,0,0,1-.594-1.665,8.027,8.027,0,0,1-.16-.951A8.653,8.653,0,0,1,0,9.648,9.016,9.016,0,0,1,.073,8.616a8.381,8.381,0,0,1,.178-.949A7.994,7.994,0,0,1,.866,6.008,8.637,8.637,0,0,1,2.695,3.586,10.032,10.032,0,0,1,4.51,2.238a7.081,7.081,0,0,1,.822-.417s.331-.109.825-.215c.29-.063.578-.112.858-.148a7.931,7.931,0,0,1,1-.067,8.446,8.446,0,0,1,1.021.067c.291.036.6.086.9.148.525.106.891.214.894.215a7.117,7.117,0,0,1,.814.382c.284.152.564.322.834.5a9.471,9.471,0,0,1,.956.736A7.826,7.826,0,0,1,15.225,5.68a6.928,6.928,0,0,1,.586,1.536,7.193,7.193,0,0,1,.163.88,7.854,7.854,0,0,1-.006,1.911,7.041,7.041,0,0,1-.167.87,6.681,6.681,0,0,1-.258.789,6.6,6.6,0,0,1-.333.711A7.218,7.218,0,0,1,13.425,14.5a8.684,8.684,0,0,1-.952.677,9.035,9.035,0,0,1-.83.453,6.645,6.645,0,0,1-.809.332s-.233.045-.561.089a9.507,9.507,0,0,1-1.2.089,8.028,8.028,0,0,1-1.142-.089c-.3-.044-.5-.088-.5-.089a6.412,6.412,0,0,1-.8-.279,8.57,8.57,0,0,1-.819-.392,8.066,8.066,0,0,1-.939-.6A6.478,6.478,0,0,1,3.11,12.759,5.828,5.828,0,0,1,2.78,12.1a5.907,5.907,0,0,1-.255-.736,6.272,6.272,0,0,1-.166-.816,6.986,6.986,0,0,1-.061-.9,6.805,6.805,0,0,1,.054-.9,5.929,5.929,0,0,1,.16-.8,5.442,5.442,0,0,1,.251-.718,5.268,5.268,0,0,1,.327-.635,5.782,5.782,0,0,1,1.765-1.81A7.353,7.353,0,0,1,5.8,4.25a7.973,7.973,0,0,1,.825-.334,6.122,6.122,0,0,1,.8-.222,1.782,1.782,0,0,1,.227-.014,1.127,1.127,0,0,1,.608.145.713.713,0,0,1,.188.2,1.194,1.194,0,0,1,.117.231,1.5,1.5,0,0,1,.077.272V7.094h0a3.732,3.732,0,0,1,.807-.089,2.651,2.651,0,0,1,.711.089,2.6,2.6,0,0,1,.511.209,3.853,3.853,0,0,1,.427.266,3.976,3.976,0,0,1,.4.325,1.557,1.557,0,0,1,.138.135,2.712,2.712,0,0,1,.306.4,2.992,2.992,0,0,1,.31.671,3.236,3.236,0,0,1,.151.938,3.1,3.1,0,0,1-.445,1.657,3.028,3.028,0,0,1-.317.436,1.79,1.79,0,0,1-.145.149,3.617,3.617,0,0,1-.628.427,3.9,3.9,0,0,1-.7.3,3.269,3.269,0,0,1-.889.152H9.215a2.486,2.486,0,0,1-.821-.138,2.542,2.542,0,0,1-.6-.3,2.283,2.283,0,0,1-.489-.441V5.078a1.848,1.848,0,0,0-.233.033,3.514,3.514,0,0,0-.6.18,4.227,4.227,0,0,0-.835.446,4.888,4.888,0,0,0-.925.831A4.017,4.017,0,0,0,3.8,8.424a5.259,5.259,0,0,0-.1,1.032,8.715,8.715,0,0,0,.075,1.115,4.446,4.446,0,0,0,.321,1.2,4.2,4.2,0,0,0,.568.951,5.1,5.1,0,0,0,1.52,1.266,6.7,6.7,0,0,0,.773.369c.216.087.439.164.663.23a5.47,5.47,0,0,0,.638.151H8.34a8.247,8.247,0,0,0,1.288-.114,8.5,8.5,0,0,0,1.024-.233,7.1,7.1,0,0,0,1.115-.431,5.153,5.153,0,0,0,2.018-1.7,4.808,4.808,0,0,0,.371-.642,5.2,5.2,0,0,0,.288-.744,6,6,0,0,0,.189-.854,7.315,7.315,0,0,0,.075-.972,8.245,8.245,0,0,0-.051-1.041,6.759,6.759,0,0,0-.17-.921,5.821,5.821,0,0,0-.273-.808,5.315,5.315,0,0,0-.361-.7,5.158,5.158,0,0,0-.434-.6,5.283,5.283,0,0,0-.491-.513,5.88,5.88,0,0,0-1.092-.784A7.162,7.162,0,0,0,10.7,3.169a8.439,8.439,0,0,0-1.056-.292,7.933,7.933,0,0,0-1.38-.172H8.222a5.955,5.955,0,0,0-.812.069,8.871,8.871,0,0,0-1.3.29A7.959,7.959,0,0,0,4.591,3.7a6.371,6.371,0,0,0-1.47,1.1A6.462,6.462,0,0,0,1.384,9.648a9.121,9.121,0,0,0,.089,1.137A7.816,7.816,0,0,0,1.688,11.8a7.019,7.019,0,0,0,.323.9,6.629,6.629,0,0,0,.414.794,6.935,6.935,0,0,0,2.224,2.229,8.614,8.614,0,0,0,1.214.64,9.419,9.419,0,0,0,1.1.394,8.638,8.638,0,0,0,.846.2,3.856,3.856,0,0,0,.457.062l.093,0c.087,0,.327,0,.676-.033.367-.032.743-.083,1.118-.152a11.407,11.407,0,0,0,1.4-.349,9.631,9.631,0,0,0,1.51-.625,7.778,7.778,0,0,0,1.46-.978,6.857,6.857,0,0,0,.66-.646,6.594,6.594,0,0,0,.586-.763,6.7,6.7,0,0,0,.492-.891,7.248,7.248,0,0,0,.377-1.028,8.352,8.352,0,0,0,.242-1.175,10.159,10.159,0,0,0,.086-1.331,9.546,9.546,0,0,0-.1-1.387,8.224,8.224,0,0,0-.278-1.235,7.565,7.565,0,0,0-.432-1.091,7.435,7.435,0,0,0-.561-.956,8.751,8.751,0,0,0-3.019-2.646A12.164,12.164,0,0,0,10.959,1,13.725,13.725,0,0,0,9.552.557,10.92,10.92,0,0,0,8.179.287h0A4.018,4.018,0,0,1,8.67.144a5.519,5.519,0,0,1,.547-.1A5.413,5.413,0,0,1,9.907,0c.086,0,.173,0,.258.007a7.263,7.263,0,0,1,.869.1c.256.045.529.1.813.172.483.119.833.232.837.233a6.926,6.926,0,0,1,.932.395,9.425,9.425,0,0,1,.947.545,9.13,9.13,0,0,1,1.075.824A7.956,7.956,0,0,1,17.591,4.9a7.821,7.821,0,0,1,.342.884,8.224,8.224,0,0,1,.247.984,9,9,0,0,1,.134,1.088,10.245,10.245,0,0,1,0,1.2c-.022.407-.064.809-.124,1.2a11.013,11.013,0,0,1-.224,1.086,10.13,10.13,0,0,1-.309.981,9.557,9.557,0,0,1-.379.88,9.074,9.074,0,0,1-1.919,2.6,9.189,9.189,0,0,1-.993.814,8.807,8.807,0,0,1-.857.536,5.984,5.984,0,0,1-.828.386,10.5,10.5,0,0,1-1.115.362,11.381,11.381,0,0,1-1.154.249A8.544,8.544,0,0,1,9.075,18.257Zm.069-10.14a3.184,3.184,0,0,0-.512.038v3.7a3.5,3.5,0,0,0,.55.041A3.1,3.1,0,0,0,10,11.8a1.751,1.751,0,0,0,.8-.446,1.472,1.472,0,0,0,.334-.539,2.2,2.2,0,0,0,.113-.8,1.77,1.77,0,0,0-.788-1.57,2.091,2.091,0,0,0-.679-.263A3.124,3.124,0,0,0,9.144,8.117Z" transform="translate(3.334 3.371)" fill="#fff"/>
</svg>